<?xml version="1.0" encoding="UTF-8" standalone="no"?>
<svg id="svg9281" xmlns:rdf="http://www.w3.org/1999/02/22-rdf-syntax-ns#" xmlns="http://www.w3.org/2000/svg" height="123mm" width="177.2mm" version="1.1" xmlns:cc="http://creativecommons.org/ns#" xmlns:dc="http://purl.org/dc/elements/1.1/" viewBox="0 0 627.92634 435.68249">
<defs id="defs9283">
<clipPath id="clipPath432" clipPathUnits="userSpaceOnUse">
<path id="path434" d="m400 526.6h102.1v-348.5h-102.1v348.5z"/>
</clipPath>
<clipPath id="clipPath840" clipPathUnits="userSpaceOnUse">
<path id="path842" d="m609.8 418.1h38.05v-129.8h-38.05v129.8z"/>
</clipPath>
<clipPath id="clipPath944" clipPathUnits="userSpaceOnUse">
<path id="path946" d="m188.9 476.7h43.43v-148.2h-43.43v148.2z"/>
</clipPath>
</defs>
<g id="layer1" transform="translate(-68.89 -320.2)">
<g id="g8674" transform="matrix(1.25 0 0 -1.25 -113 978.5)">
<g id="g7383">
<g id="g344" transform="translate(370.7 224.7)">
<path id="path346" d="m0 0h58.57l-9.314-46.64h-39.94l-9.32 46.64z" fill-rule="evenodd" fill="#468e65"/>
</g>
<g id="g348" transform="translate(427 213.5)">
<path id="path350" d="m0 0-1.097-5.509h-51.88l-1.1 5.509h54.08z" fill-rule="evenodd" fill="#ffdfe3"/>
</g>
<g id="g352" transform="translate(370.7 224.7)">
<path id="path354" d="m0 0h58.57l-1.101-5.504h-56.37l-1.1 5.504z" fill-rule="evenodd" fill="#ffdfe3"/>
</g>
<g id="g356" transform="translate(371.4 221.1)">
<path id="path358" d="m0 0h57.11l-0.37-1.856h-56.37l-0.37 1.856z" fill-rule="evenodd" fill="#ff8096"/>
</g>
<g id="g360" transform="translate(372.9 220.7)">
<path id="path362" d="m0 0c6.457 0 10.71-14.79 0-14.79-10.7 0-6.453 14.79 0 14.79" fill-rule="evenodd" fill="#ff8096"/>
</g>
<g id="g364" transform="translate(372.9 219.1)">
<path id="path366" d="m0 0c1.742 0 3.097 2.595 2.61 4.412-0.748-0.099-1.612-0.154-2.61-0.154-0.994 0-1.861 0.055-2.608 0.154-0.486-1.817 0.867-4.412 2.608-4.412" fill-rule="evenodd" fill="#ff8096"/>
</g>
<g id="g368" transform="translate(427.1 220.7)">
<path id="path370" d="m0 0c6.457 0 10.71-14.79 0-14.79-10.7 0-6.453 14.79 0 14.79" fill-rule="evenodd" fill="#ff8096"/>
</g>
<g id="g372" transform="translate(427.1 219.1)">
<path id="path374" d="m0 0c1.745 0 3.098 2.595 2.611 4.412-0.747-0.099-1.613-0.154-2.611-0.154-0.994 0-1.86 0.055-2.606 0.154-0.487-1.817 0.865-4.412 2.606-4.412" fill-rule="evenodd" fill="#ff8096"/>
</g>
<g id="g376" transform="translate(391 220.7)">
<path id="path378" d="m0 0c6.456 0 10.71-14.79 0-14.79-10.7 0-6.455 14.79 0 14.79" fill-rule="evenodd" fill="#ff8096"/>
</g>
<g id="g380" transform="translate(391 219.1)">
<path id="path382" d="m0 0c1.741 0 3.096 2.595 2.609 4.412-0.748-0.099-1.611-0.154-2.609-0.154-0.996 0-1.862 0.055-2.609 0.154-0.485-1.817 0.867-4.412 2.609-4.412" fill-rule="evenodd" fill="#ff8096"/>
</g>
<g id="g384" transform="translate(409 220.7)">
<path id="path386" d="m0 0c6.455 0 10.7-14.79 0-14.79-10.71 0-6.455 14.79 0 14.79" fill-rule="evenodd" fill="#ff8096"/>
</g>
<g id="g388" transform="translate(409 219.1)">
<path id="path390" d="m0 0c1.742 0 3.096 2.595 2.609 4.412-0.748-0.099-1.613-0.154-2.609-0.154-0.997 0-1.861 0.055-2.608 0.154-0.489-1.817 0.867-4.412 2.608-4.412" fill-rule="evenodd" fill="#ff8096"/>
</g>
<g id="g392" transform="translate(369.8 224.7)">
<path id="path394" d="m0 0h60.38l-0.389-1.855h-59.59l-0.4 1.855z" fill-rule="evenodd" fill="#ff8096"/>
</g>
<g id="g396" transform="translate(372.4 273.4)">
<path id="path398" d="m0 0-53.92 91.31c-44.38 75.18-16.91 161.9 81.57 161.9 98.5 0 125.9-86.77 81.55-161.9l-53.9-91.31h-55.3z" fill-rule="evenodd" fill="#ffdfe3"/>
</g>
<g id="g400" transform="translate(375.4 273.4)">
<path id="path402" d="m0 0-47.96 91.31c-39.48 75.18-15.04 161.9 72.56 161.9 87.62 0 112-86.77 72.55-161.9l-47.94-91.31h-49.2z" fill-rule="evenodd" fill="#ff8096"/>
</g>
<g id="g404" transform="translate(379.8 273.4)">
<path id="path406" d="m0 0-39.32 91.31c-32.37 75.18-12.33 161.9 59.48 161.9 71.84 0 91.85-86.77 59.48-161.9l-39.35-91.31h-40.33z" fill-rule="evenodd" fill="#ffdfe3"/>
</g>
<g id="g408" transform="translate(385.2 273.4)">
<path id="path410" d="m0 0-28.95 91.31c-23.83 75.18-9.078 161.9 43.8 161.9 52.89 0 67.62-86.77 43.79-161.9l-28.95-91.31h-29.69z" fill-rule="evenodd" fill="#ff8096"/>
</g>
<g id="g412" transform="translate(393.8 273.4)">
<path id="path414" d="m0 0-12.02 91.31c-9.898 75.18-3.771 161.9 18.19 161.9s28.08-86.77 18.19-161.9l-12.03-91.31h-12.33z" fill-rule="evenodd" fill="#ffdfe3"/>
</g>
<g id="g416" transform="translate(372.4 273.4)">
<path id="path418" d="m0 0-22.6 38.27h100.5l-22.6-38.27h-55.3z" fill-rule="evenodd" fill="#468e65"/>
</g>
<g id="g420" transform="translate(368.1 292.1)">
<path id="path422" d="m0 0-3.436 19.61h-0.856l4.292-25.69v6.08zm-16.87 19.61 16.87-69.66v-6.008l-17.75 75.66h0.884zm60.3 0-4.048-87.57-1.576 0.068 4.797 87.5h0.827zm-22.32 0 4.799-87.5-1.578-0.068-4.049 87.57h0.828zm-21.11-25.69 10.36-61.96 1.52 0.22-11.88 67.82v-6.076zm63.72-43.97-4.293-17.73 1.473-0.299 2.82 12.02v6.012zm0 50.04v-6.071l-10.36-61.96-1.523 0.222 11.88 67.81zm-63.72-50.04 4.293-17.73-1.473-0.3-2.82 12.02v6.008zm63.72 43.97 4.294 25.68h-0.858l-3.436-19.61v-6.071zm0-49.98v6.012l16.86 69.66h0.886l-17.75-75.67z" fill="#ffdfe3"/>
</g>
<g id="g424" transform="translate(349.7 311.8)">
<path id="path426" d="m0 0h100.6c-0.104-0.621-0.213-1.238-0.324-1.858h-99.97c-0.116 0.62-0.222 1.237-0.33 1.858" fill-rule="evenodd" fill="#ffdfe3"/>
</g>
<g id="g428">
<g id="g436">
<g id="g438" opacity="0.15" clip-path="url(#clipPath432)">
<g id="g440" transform="translate(434.6 253.5)">
<path id="path442" d="m0 0-6.968-28.77h-2.372-3.682l3.682 22.03 5.282 31.6 4.056 6.87 13.02 22.05-13.02-53.78zm-16.37-28.77h-10.72l2.249 48.67h5.044 3.424 1.896 4.433 0.704 2.351l1.331 2.252-3.682-21.02-5.237-29.9h-1.796zm16.37 297.8c-3.017 0.782-6.125 1.463-9.34 2.033-2.293 0.403-4.638 0.75-7.033 1.042-5.791 0.704-11.88 1.076-18.27 1.076v-214.9-0.103-1.756-36.51h6.166 2.479l-2.67-48.67h-5.975v-1.856-1.792-1.856-5.73-5.509-29.9h18.27 1.7l5.333 26.71 0.252 1.259c0.469-0.069 0.973-0.107 1.519-0.107 9.604 0 7.172 11.91 1.909 14.35 0.518 0.725 0.83 1.689 0.8 2.573h0.015l0.39 1.856h-0.904-0.069l5.428 23.13 14.54 62 0.03 0.049h0.772c0.111 0.62 0.22 1.238 0.324 1.859l31.24 52.92c38.66 65.5 22.84 139.8-46.9 157.9" fill-rule="evenodd" fill="#1a1a1a"/>
</g>
</g>
</g>
</g>
</g>
<g id="g7678">
<g id="g460" transform="translate(598.9 305.6)">
<path id="path462" d="m0 0h21.82l-3.468-17.37h-14.88l-3.47 17.37z" fill-rule="evenodd" fill="#d0ce68"/>
</g>
<g id="g464" transform="translate(619.9 301.4)">
<path id="path466" d="m0 0-0.408-2.051h-19.33l-0.4 2.051h20.14z" fill-rule="evenodd" fill="#629a9b"/>
</g>
<g id="g468" transform="translate(598.9 305.6)">
<path id="path470" d="m0 0h21.82l-0.41-2.052h-21l-0.41 2.052z" fill-rule="evenodd" fill="#629a9b"/>
</g>
<g id="g472" transform="translate(599.1 304.3)">
<path id="path474" d="m0 0h21.27l-0.138-0.691h-21l-0.13 0.691z" fill-rule="evenodd" fill="#fff"/>
</g>
<g id="g476" transform="translate(599.7 304.1)">
<path id="path478" d="m0 0c2.405 0 3.987-5.513 0-5.513-3.988 0-2.404 5.513 0 5.513" fill-rule="evenodd" fill="#fff"/>
</g>
<g id="g480" transform="translate(599.7 303.5)">
<path id="path482" d="m0 0c0.649 0 1.154 0.967 0.971 1.645-0.278-0.037-0.6-0.056-0.971-0.056-0.37 0-0.693 0.019-0.972 0.056-0.181-0.678 0.324-1.645 0.972-1.645" fill-rule="evenodd" fill="#fff"/>
</g>
<g id="g484" transform="translate(619.9 304.1)">
<path id="path486" d="m0 0c2.404 0 3.987-5.513 0-5.513-3.989 0-2.404 5.513 0 5.513" fill-rule="evenodd" fill="#fff"/>
</g>
<g id="g488" transform="translate(619.9 303.5)">
<path id="path490" d="m0 0c0.649 0 1.152 0.967 0.97 1.645-0.278-0.037-0.599-0.056-0.97-0.056s-0.694 0.019-0.973 0.056c-0.181-0.678 0.324-1.645 0.973-1.645" fill-rule="evenodd" fill="#fff"/>
</g>
<g id="g492" transform="translate(606.4 304.1)">
<path id="path494" d="m0 0c2.405 0 3.988-5.513 0-5.513s-2.404 5.513 0 5.513" fill-rule="evenodd" fill="#fff"/>
</g>
<g id="g496" transform="translate(606.4 303.5)">
<path id="path498" d="m0 0c0.649 0 1.153 0.967 0.973 1.645-0.279-0.037-0.602-0.056-0.973-0.056-0.37 0-0.693 0.019-0.973 0.056-0.18-0.678 0.325-1.645 0.973-1.645" fill-rule="evenodd" fill="#fff"/>
</g>
<g id="g500" transform="translate(613.1 304.1)">
<path id="path502" d="m0 0c2.405 0 3.99-5.513 0-5.513-3.986 0-2.403 5.513 0 5.513" fill-rule="evenodd" fill="#fff"/>
</g>
<g id="g504" transform="translate(613.1 303.5)">
<path id="path506" d="m0 0c0.649 0 1.155 0.967 0.974 1.645-0.279-0.037-0.601-0.056-0.974-0.056-0.371 0-0.691 0.019-0.97 0.056-0.182-0.678 0.323-1.645 0.97-1.645" fill-rule="evenodd" fill="#fff"/>
</g>
<g id="g508" transform="translate(599.5 323.8)">
<path id="path510" d="m0 0-20.08 34.02c-16.53 28-6.298 60.32 30.39 60.32s46.92-32.32 30.38-60.33l-20.09-34.01h-20.6z" fill-rule="evenodd" fill="#675e9b"/>
</g>
<g id="g512" transform="translate(604 348.3)">
<path id="path514" d="m0 0c-0.217 0.026-0.42 0.088-0.608 0.178l-0.288 3.342c0.17 0.123 0.362 0.217 0.567 0.279l0.329-3.799z" fill-rule="evenodd" fill="#468e65"/>
</g>
<g id="g516" transform="translate(604.6 333.9)">
<path id="path518" d="m0 0c0.222-0.047 0.427-0.133 0.614-0.248l0.269-3.109c-0.165-0.148-0.355-0.267-0.563-0.351l-0.32 3.708z" fill-rule="evenodd" fill="#468e65"/>
</g>
<g id="g520" transform="translate(616.1 352.1)">
<path id="path522" d="m0 0c0.208-0.087 0.397-0.206 0.562-0.354l-0.269-3.098c-0.186-0.117-0.392-0.203-0.613-0.251l0.32 3.703z" fill-rule="evenodd" fill="#468e65"/>
</g>
<g id="g524" transform="translate(614.8 330.2)">
<path id="path526" d="m0 0c-0.206 0.061-0.397 0.154-0.568 0.275l0.289 3.354c0.187 0.089 0.392 0.148 0.606 0.173l-0.327-3.802z" fill-rule="evenodd" fill="#468e65"/>
</g>
<g id="g528" transform="translate(583.6 369.4)">
<path id="path530" d="m0 0c0.107-0.212 0.178-0.445 0.201-0.692h-3.878c0.025 0.247 0.094 0.48 0.201 0.692h3.476z" fill-rule="evenodd" fill="#468e65"/>
</g>
<g id="g532" transform="translate(594.8 369.4)">
<path id="path534" d="m0 0c0.108-0.212 0.178-0.445 0.201-0.692h-3.878c0.025 0.247 0.093 0.48 0.2 0.692h3.477z" fill-rule="evenodd" fill="#468e65"/>
</g>
<g id="g536" transform="translate(605.9 369.4)">
<path id="path538" d="m0 0c0.107-0.212 0.176-0.445 0.2-0.692h-3.877c0.024 0.247 0.093 0.48 0.2 0.692h3.477z" fill-rule="evenodd" fill="#468e65"/>
</g>
<g id="g540" transform="translate(617.1 369.4)">
<path id="path542" d="m0 0c0.106-0.212 0.176-0.445 0.199-0.692h-3.877c0.024 0.247 0.093 0.48 0.2 0.692h3.478z" fill-rule="evenodd" fill="#468e65"/>
</g>
<g id="g544" transform="translate(628.3 369.4)">
<path id="path546" d="m0 0c0.107-0.212 0.179-0.445 0.201-0.692h-3.879c0.026 0.247 0.095 0.48 0.201 0.692h3.477z" fill-rule="evenodd" fill="#468e65"/>
</g>
<g id="g548" transform="translate(639.4 369.4)">
<path id="path550" d="m0 0c0.107-0.212 0.177-0.445 0.2-0.692h-3.878c0.024 0.247 0.094 0.48 0.2 0.692h3.478z" fill-rule="evenodd" fill="#468e65"/>
</g>
<g id="g552" transform="translate(589.4 413.8)">
<path id="path554" d="m0 0c-0.028-1.05-0.89-1.893-1.946-1.893-0.353 0-0.682 0.094-0.967 0.256 0.929 0.584 1.898 1.131 2.913 1.637" fill-rule="evenodd" fill="#468e65"/>
</g>
<g id="g556" transform="translate(598.6 415.8)">
<path id="path558" d="m0 0c1.075 0 1.947-0.874 1.947-1.949 0-1.076-0.872-1.948-1.947-1.948-1.076 0-1.948 0.872-1.948 1.948 0 1.075 0.872 1.949 1.948 1.949" fill-rule="evenodd" fill="#468e65"/>
</g>
<g id="g560" transform="translate(609.8 415.8)">
<path id="path562" d="m0 0c1.075 0 1.947-0.874 1.947-1.949 0-1.076-0.872-1.948-1.947-1.948-1.077 0-1.948 0.872-1.948 1.948 0 1.075 0.871 1.949 1.948 1.949" fill-rule="evenodd" fill="#468e65"/>
</g>
<g id="g564" transform="translate(620.9 415.8)">
<path id="path566" d="m0 0c1.076 0 1.948-0.874 1.948-1.949 0-1.076-0.872-1.948-1.948-1.948s-1.948 0.872-1.948 1.948c0 1.075 0.872 1.949 1.948 1.949" fill-rule="evenodd" fill="#468e65"/>
</g>
<g id="g568" transform="translate(633.1 412.1)">
<path id="path570" d="m0 0c-0.285-0.163-0.616-0.257-0.967-0.257-1.058 0-1.919 0.843-1.947 1.894 1.016-0.505 1.985-1.054 2.914-1.637" fill-rule="evenodd" fill="#468e65"/>
</g>
<g id="g572" transform="translate(581.9 406.9)">
<path id="path574" d="m0 0c1.076 0 1.948-0.872 1.948-1.948 0-1.075-0.872-1.949-1.948-1.949s-1.947 0.874-1.947 1.949c0 1.076 0.871 1.948 1.947 1.948" fill-rule="evenodd" fill="#468e65"/>
</g>
<g id="g576" transform="translate(593 406.9)">
<path id="path578" d="m0 0c1.074 0 1.948-0.872 1.948-1.948 0-1.075-0.874-1.949-1.948-1.949-1.075 0-1.947 0.874-1.947 1.949 0 1.076 0.872 1.948 1.947 1.948" fill-rule="evenodd" fill="#468e65"/>
</g>
<g id="g580" transform="translate(604.2 406.9)">
<path id="path582" d="m0 0c1.077 0 1.947-0.872 1.947-1.948 0-1.075-0.87-1.949-1.947-1.949-1.076 0-1.948 0.874-1.948 1.949 0 1.076 0.872 1.948 1.948 1.948" fill-rule="evenodd" fill="#468e65"/>
</g>
<g id="g584" transform="translate(615.4 406.9)">
<path id="path586" d="m0 0c1.075 0 1.948-0.872 1.948-1.948 0-1.075-0.873-1.949-1.948-1.949-1.076 0-1.949 0.874-1.949 1.949 0 1.076 0.873 1.948 1.949 1.948" fill-rule="evenodd" fill="#468e65"/>
</g>
<g id="g588" transform="translate(626.5 406.9)">
<path id="path590" d="m0 0c1.076 0 1.948-0.872 1.948-1.948 0-1.075-0.872-1.949-1.948-1.949-1.075 0-1.947 0.874-1.947 1.949 0 1.076 0.872 1.948 1.947 1.948" fill-rule="evenodd" fill="#468e65"/>
</g>
<g id="g592" transform="translate(637.7 406.9)">
<path id="path594" d="m0 0c1.077 0 1.947-0.872 1.947-1.948 0-1.075-0.87-1.949-1.947-1.949-1.075 0-1.946 0.874-1.946 1.949 0 1.076 0.871 1.948 1.946 1.948" fill-rule="evenodd" fill="#468e65"/>
</g>
<g id="g596" transform="translate(576.3 397.5)">
<path id="path598" d="m0 0c1.076 0 1.948-0.871 1.948-1.947s-0.872-1.948-1.948-1.948-1.948 0.872-1.948 1.948 0.872 1.947 1.948 1.947" fill-rule="evenodd" fill="#468e65"/>
</g>
<g id="g600" transform="translate(587.4 397.5)">
<path id="path602" d="m0 0c1.075 0 1.948-0.871 1.948-1.947s-0.873-1.948-1.948-1.948c-1.077 0-1.948 0.872-1.948 1.948s0.871 1.947 1.948 1.947" fill-rule="evenodd" fill="#468e65"/>
</g>
<g id="g604" transform="translate(598.6 397.5)">
<path id="path606" d="m0 0c1.075 0 1.947-0.871 1.947-1.947s-0.872-1.948-1.947-1.948c-1.076 0-1.948 0.872-1.948 1.948s0.872 1.947 1.948 1.947" fill-rule="evenodd" fill="#468e65"/>
</g>
<g id="g608" transform="translate(609.8 397.5)">
<path id="path610" d="m0 0c1.075 0 1.947-0.871 1.947-1.947s-0.872-1.948-1.947-1.948c-1.077 0-1.948 0.872-1.948 1.948s0.871 1.947 1.948 1.947" fill-rule="evenodd" fill="#468e65"/>
</g>
<g id="g612" transform="translate(620.9 397.5)">
<path id="path614" d="m0 0c1.076 0 1.948-0.871 1.948-1.947s-0.872-1.948-1.948-1.948-1.948 0.872-1.948 1.948 0.872 1.947 1.948 1.947" fill-rule="evenodd" fill="#468e65"/>
</g>
<g id="g616" transform="translate(632.1 397.5)">
<path id="path618" d="m0 0c1.076 0 1.947-0.871 1.947-1.947s-0.871-1.948-1.947-1.948-1.947 0.872-1.947 1.948 0.871 1.947 1.947 1.947" fill-rule="evenodd" fill="#468e65"/>
</g>
<g id="g620" transform="translate(643.3 397.5)">
<path id="path622" d="m0 0c1.076 0 1.947-0.871 1.947-1.947s-0.871-1.948-1.947-1.948c-1.075 0-1.948 0.872-1.948 1.948s0.873 1.947 1.948 1.947" fill-rule="evenodd" fill="#468e65"/>
</g>
<g id="g624" transform="translate(572 388.2)">
<path id="path626" d="m0 0c0.418-0.357 0.682-0.888 0.682-1.48 0-0.687-0.354-1.29-0.892-1.637 0.03 1.052 0.099 2.091 0.21 3.117" fill-rule="evenodd" fill="#468e65"/>
</g>
<g id="g628" transform="translate(581.9 388.7)">
<path id="path630" d="m0 0c1.076 0 1.948-0.872 1.948-1.948s-0.872-1.948-1.948-1.948-1.947 0.872-1.947 1.948 0.871 1.948 1.947 1.948" fill-rule="evenodd" fill="#468e65"/>
</g>
<g id="g632" transform="translate(593 388.7)">
<path id="path634" d="m0 0c1.074 0 1.948-0.872 1.948-1.948s-0.874-1.948-1.948-1.948c-1.075 0-1.947 0.872-1.947 1.948s0.872 1.948 1.947 1.948" fill-rule="evenodd" fill="#468e65"/>
</g>
<g id="g636" transform="translate(604.2 388.7)">
<path id="path638" d="m0 0c1.077 0 1.947-0.872 1.947-1.948s-0.87-1.948-1.947-1.948c-1.076 0-1.948 0.872-1.948 1.948s0.872 1.948 1.948 1.948" fill-rule="evenodd" fill="#468e65"/>
</g>
<g id="g640" transform="translate(615.4 388.7)">
<path id="path642" d="m0 0c1.075 0 1.948-0.872 1.948-1.948s-0.873-1.948-1.948-1.948c-1.076 0-1.949 0.872-1.949 1.948s0.873 1.948 1.949 1.948" fill-rule="evenodd" fill="#468e65"/>
</g>
<g id="g644" transform="translate(626.5 388.7)">
<path id="path646" d="m0 0c1.076 0 1.948-0.872 1.948-1.948s-0.872-1.948-1.948-1.948c-1.075 0-1.947 0.872-1.947 1.948s0.872 1.948 1.947 1.948" fill-rule="evenodd" fill="#468e65"/>
</g>
<g id="g648" transform="translate(637.7 388.7)">
<path id="path650" d="m0 0c1.077 0 1.947-0.872 1.947-1.948s-0.87-1.948-1.947-1.948c-1.075 0-1.946 0.872-1.946 1.948s0.871 1.948 1.946 1.948" fill-rule="evenodd" fill="#468e65"/>
</g>
<g id="g652" transform="translate(647.8 385.1)">
<path id="path654" d="m0 0c-0.537 0.347-0.893 0.95-0.893 1.637 0 0.592 0.266 1.123 0.683 1.48 0.109-1.026 0.181-2.065 0.21-3.117" fill-rule="evenodd" fill="#468e65"/>
</g>
<g id="g656" transform="translate(576.3 379.3)">
<path id="path658" d="m0 0c1.076 0 1.948-0.872 1.948-1.948s-0.872-1.948-1.948-1.948-1.948 0.872-1.948 1.948 0.872 1.948 1.948 1.948" fill-rule="evenodd" fill="#468e65"/>
</g>
<g id="g660" transform="translate(587.4 379.3)">
<path id="path662" d="m0 0c1.075 0 1.948-0.872 1.948-1.948s-0.873-1.948-1.948-1.948c-1.077 0-1.948 0.872-1.948 1.948s0.871 1.948 1.948 1.948" fill-rule="evenodd" fill="#468e65"/>
</g>
<g id="g664" transform="translate(598.6 379.3)">
<path id="path666" d="m0 0c1.075 0 1.947-0.872 1.947-1.948s-0.872-1.948-1.947-1.948c-1.076 0-1.948 0.872-1.948 1.948s0.872 1.948 1.948 1.948" fill-rule="evenodd" fill="#468e65"/>
</g>
<g id="g668" transform="translate(609.8 379.3)">
<path id="path670" d="m0 0c1.075 0 1.947-0.872 1.947-1.948s-0.872-1.948-1.947-1.948c-1.077 0-1.948 0.872-1.948 1.948s0.871 1.948 1.948 1.948" fill-rule="evenodd" fill="#468e65"/>
</g>
<g id="g672" transform="translate(620.9 379.3)">
<path id="path674" d="m0 0c1.076 0 1.948-0.872 1.948-1.948s-0.872-1.948-1.948-1.948-1.948 0.872-1.948 1.948 0.872 1.948 1.948 1.948" fill-rule="evenodd" fill="#468e65"/>
</g>
<g id="g676" transform="translate(632.1 379.3)">
<path id="path678" d="m0 0c1.076 0 1.947-0.872 1.947-1.948s-0.871-1.948-1.947-1.948-1.947 0.872-1.947 1.948 0.871 1.948 1.947 1.948" fill-rule="evenodd" fill="#468e65"/>
</g>
<g id="g680" transform="translate(643.3 379.3)">
<path id="path682" d="m0 0c1.076 0 1.947-0.872 1.947-1.948s-0.871-1.948-1.947-1.948c-1.075 0-1.948 0.872-1.948 1.948s0.873 1.948 1.948 1.948" fill-rule="evenodd" fill="#468e65"/>
</g>
<g id="g684" transform="translate(581.9 370.4)">
<path id="path686" d="m0 0c1.076 0 1.948-0.872 1.948-1.948s-0.872-1.949-1.948-1.949-1.947 0.873-1.947 1.949 0.871 1.948 1.947 1.948" fill-rule="evenodd" fill="#468e65"/>
</g>
<g id="g688" transform="translate(593 370.4)">
<path id="path690" d="m0 0c1.074 0 1.948-0.872 1.948-1.948s-0.874-1.949-1.948-1.949c-1.075 0-1.947 0.873-1.947 1.949s0.872 1.948 1.947 1.948" fill-rule="evenodd" fill="#468e65"/>
</g>
<g id="g692" transform="translate(604.2 370.4)">
<path id="path694" d="m0 0c1.077 0 1.947-0.872 1.947-1.948s-0.87-1.949-1.947-1.949c-1.076 0-1.948 0.873-1.948 1.949s0.872 1.948 1.948 1.948" fill-rule="evenodd" fill="#468e65"/>
</g>
<g id="g696" transform="translate(615.4 370.4)">
<path id="path698" d="m0 0c1.075 0 1.948-0.872 1.948-1.948s-0.873-1.949-1.948-1.949c-1.076 0-1.949 0.873-1.949 1.949s0.873 1.948 1.949 1.948" fill-rule="evenodd" fill="#468e65"/>
</g>
<g id="g700" transform="translate(626.5 370.4)">
<path id="path702" d="m0 0c1.076 0 1.948-0.872 1.948-1.948s-0.872-1.949-1.948-1.949c-1.075 0-1.947 0.873-1.947 1.949s0.872 1.948 1.947 1.948" fill-rule="evenodd" fill="#468e65"/>
</g>
<g id="g704" transform="translate(637.7 370.4)">
<path id="path706" d="m0 0c1.077 0 1.947-0.872 1.947-1.948s-0.87-1.949-1.947-1.949c-1.075 0-1.946 0.873-1.946 1.949s0.871 1.948 1.946 1.948" fill-rule="evenodd" fill="#468e65"/>
</g>
<g id="g708" transform="translate(587.4 361.1)">
<path id="path710" d="m0 0c1.075 0 1.948-0.872 1.948-1.947 0-1.076-0.873-1.949-1.948-1.949-1.077 0-1.948 0.873-1.948 1.949 0 1.075 0.871 1.947 1.948 1.947" fill-rule="evenodd" fill="#468e65"/>
</g>
<g id="g712" transform="translate(598.6 361.1)">
<path id="path714" d="m0 0c1.075 0 1.947-0.872 1.947-1.947 0-1.076-0.872-1.949-1.947-1.949-1.076 0-1.948 0.873-1.948 1.949 0 1.075 0.872 1.947 1.948 1.947" fill-rule="evenodd" fill="#468e65"/>
</g>
<g id="g716" transform="translate(609.8 361.1)">
<path id="path718" d="m0 0c1.075 0 1.947-0.872 1.947-1.947 0-1.076-0.872-1.949-1.947-1.949-1.077 0-1.948 0.873-1.948 1.949 0 1.075 0.871 1.947 1.948 1.947" fill-rule="evenodd" fill="#468e65"/>
</g>
<g id="g720" transform="translate(620.9 361.1)">
<path id="path722" d="m0 0c1.076 0 1.948-0.872 1.948-1.947 0-1.076-0.872-1.949-1.948-1.949s-1.948 0.873-1.948 1.949c0 1.075 0.872 1.947 1.948 1.947" fill-rule="evenodd" fill="#468e65"/>
</g>
<g id="g724" transform="translate(632.1 361.1)">
<path id="path726" d="m0 0c1.076 0 1.947-0.872 1.947-1.947 0-1.076-0.871-1.949-1.947-1.949s-1.947 0.873-1.947 1.949c0 1.075 0.871 1.947 1.947 1.947" fill-rule="evenodd" fill="#468e65"/>
</g>
<g id="g728" transform="translate(582.8 352)">
<path id="path730" d="m0 0c0.576-0.331 0.966-0.948 0.978-1.658l-0.978 1.658z" fill-rule="evenodd" fill="#468e65"/>
</g>
<g id="g732" transform="translate(593 352.2)">
<path id="path734" d="m0 0c1.074 0 1.948-0.872 1.948-1.949 0-1.075-0.874-1.947-1.948-1.947-1.075 0-1.947 0.872-1.947 1.947 0 1.077 0.872 1.949 1.947 1.949" fill-rule="evenodd" fill="#468e65"/>
</g>
<g id="g736" transform="translate(604.2 352.2)">
<path id="path738" d="m0 0c1.077 0 1.947-0.872 1.947-1.949 0-1.075-0.87-1.947-1.947-1.947-1.076 0-1.948 0.872-1.948 1.947 0 1.077 0.872 1.949 1.948 1.949" fill-rule="evenodd" fill="#468e65"/>
</g>
<g id="g740" transform="translate(615.4 352.2)">
<path id="path742" d="m0 0c1.075 0 1.948-0.872 1.948-1.949 0-1.075-0.873-1.947-1.948-1.947-1.076 0-1.949 0.872-1.949 1.947 0 1.077 0.873 1.949 1.949 1.949" fill-rule="evenodd" fill="#468e65"/>
</g>
<g id="g744" transform="translate(626.5 352.2)">
<path id="path746" d="m0 0c1.076 0 1.948-0.872 1.948-1.949 0-1.075-0.872-1.947-1.948-1.947-1.075 0-1.947 0.872-1.947 1.947 0 1.077 0.872 1.949 1.947 1.949" fill-rule="evenodd" fill="#468e65"/>
</g>
<g id="g748" transform="translate(635.8 350.3)">
<path id="path750" d="m0 0c0.011 0.712 0.402 1.331 0.98 1.662l-0.98-1.662z" fill-rule="evenodd" fill="#468e65"/>
</g>
<g id="g752" transform="translate(588.3 342.7)">
<path id="path754" d="m0 0c0.646-0.317 1.091-0.98 1.091-1.749 0-0.031-0.002-0.063-0.003-0.095l-1.088 1.844z" fill-rule="evenodd" fill="#468e65"/>
</g>
<g id="g756" transform="translate(598.6 342.9)">
<path id="path758" d="m0 0c1.075 0 1.947-0.873 1.947-1.948 0-1.077-0.872-1.949-1.947-1.949-1.076 0-1.948 0.872-1.948 1.949 0 1.075 0.872 1.948 1.948 1.948" fill-rule="evenodd" fill="#468e65"/>
</g>
<g id="g760" transform="translate(609.8 342.9)">
<path id="path762" d="m0 0c1.075 0 1.947-0.873 1.947-1.948 0-1.077-0.872-1.949-1.947-1.949-1.077 0-1.948 0.872-1.948 1.949 0 1.075 0.871 1.948 1.948 1.948" fill-rule="evenodd" fill="#468e65"/>
</g>
<g id="g764" transform="translate(620.9 342.9)">
<path id="path766" d="m0 0c1.076 0 1.948-0.873 1.948-1.948 0-1.077-0.872-1.949-1.948-1.949s-1.948 0.872-1.948 1.949c0 1.075 0.872 1.948 1.948 1.948" fill-rule="evenodd" fill="#468e65"/>
</g>
<g id="g768" transform="translate(630.2 340.8)">
<path id="path770" d="m0 0c-0.002 0.032-0.002 0.064-0.002 0.097 0 0.769 0.445 1.433 1.092 1.751l-1.09-1.848z" fill-rule="evenodd" fill="#468e65"/>
</g>
<g id="g772" transform="translate(593.5 333.9)">
<path id="path774" d="m0 0c0.865-0.198 1.512-0.973 1.512-1.897 0-0.186-0.028-0.366-0.075-0.536l-1.437 2.433z" fill-rule="evenodd" fill="#468e65"/>
</g>
<g id="g776" transform="translate(604.2 334)">
<path id="path778" d="m0 0c1.077 0 1.947-0.871 1.947-1.946 0-1.077-0.87-1.95-1.947-1.95-1.076 0-1.948 0.873-1.948 1.95 0 1.075 0.872 1.946 1.948 1.946" fill-rule="evenodd" fill="#468e65"/>
</g>
<g id="g780" transform="translate(615.4 334)">
<path id="path782" d="m0 0c1.075 0 1.948-0.871 1.948-1.946 0-1.077-0.873-1.95-1.948-1.95-1.076 0-1.949 0.873-1.949 1.95 0 1.075 0.873 1.946 1.949 1.946" fill-rule="evenodd" fill="#468e65"/>
</g>
<g id="g784" transform="translate(624.7 331.5)">
<path id="path786" d="m0 0c-0.049 0.17-0.075 0.351-0.075 0.537 0 0.926 0.647 1.7 1.512 1.898l-1.437-2.435z" fill-rule="evenodd" fill="#468e65"/>
</g>
<g id="g788" transform="translate(593.5 333.9)">
<path id="path790" d="m0 0c0.865-0.198 1.512-0.973 1.512-1.897 0-0.186-0.028-0.367-0.075-0.537l-1.437 2.434z" fill-rule="evenodd" fill="#468e65"/>
</g>
<g id="g792" transform="translate(604.2 334)">
<path id="path794" d="m0 0c1.077 0 1.947-0.871 1.947-1.946 0-1.077-0.87-1.95-1.947-1.95-1.076 0-1.948 0.873-1.948 1.95 0 1.075 0.872 1.946 1.948 1.946" fill-rule="evenodd" fill="#468e65"/>
</g>
<g id="g796" transform="translate(615.4 334)">
<path id="path798" d="m0 0c1.075 0 1.948-0.871 1.948-1.946 0-1.077-0.873-1.95-1.948-1.95-1.076 0-1.949 0.873-1.949 1.95 0 1.075 0.873 1.946 1.949 1.946" fill-rule="evenodd" fill="#468e65"/>
</g>
<g id="g800" transform="translate(624.7 331.5)">
<path id="path802" d="m0 0c-0.049 0.17-0.075 0.351-0.075 0.537 0 0.926 0.647 1.7 1.512 1.898l-1.437-2.435z" fill-rule="evenodd" fill="#468e65"/>
</g>
<g id="g804" transform="translate(599.5 323.8)">
<path id="path806" d="m0 0-8.417 14.26h37.44l-8.42-14.26h-20.6z" fill-rule="evenodd" fill="#d0ce68"/>
</g>
<g id="g808" transform="translate(575.1 368.7)">
<path id="path810" d="m0 0 24.52-63.16-0.55-0.21-24.6 63.37h0.63z" fill="#fff"/>
</g>
<g id="g812" transform="translate(645.3 368.7)">
<path id="path814" d="m0 0-24.6-63.37-0.549 0.216l24.52 63.15h0.63z" fill="#fff"/>
</g>
<g id="g816" transform="translate(584.7 368.7)">
<path id="path818" d="m0 0 17.76-63.19-0.57-0.16-17.8 63.35h0.61z" fill="#fff"/>
</g>
<g id="g820" transform="translate(635.7 368.7)">
<path id="path822" d="m0 0-17.8-63.35-0.566 0.16l17.76 63.19h0.61z" fill="#fff"/>
</g>
<g id="g824" transform="translate(602.2 368.7)">
<path id="path826" d="m0 0 5.456-63.24-0.589-0.05-5.459 63.29h0.592z" fill="#fff"/>
</g>
<g id="g828" transform="translate(618.1 368.7)">
<path id="path830" d="m0 0-5.461-63.29-0.587 0.05 5.456 63.24h0.592z" fill="#fff"/>
</g>
<g id="g832" transform="translate(574.2 369.4)">
<path id="path834" d="m0 0h71.27c-0.075-0.23-0.151-0.462-0.23-0.692h-70.81c-0.079 0.23-0.154 0.462-0.23 0.692" fill-rule="evenodd" fill="#fff"/>
</g>
<g id="g836">
<g id="g844">
<g id="g846" opacity="0.15" clip-path="url(#clipPath840)">
<g id="g848" transform="translate(629.4 329.5)">
<path id="path850" d="m0 0-9.271-23.88h-1.534-0.679l0.679 2.419 7.109 25.3 2.758 4.67 0.938 1.589 0.734 1.243 1.09 1.848 4.492 7.606 0.981 1.662 3.427 5.803c0.259 0.44 0.513 0.882 0.759 1.324l-11.49-29.58zm-16.75-23.88 1.564 18.13h4.377 1.45l4.492 7.607-5.942-21.14-1.292-4.597h-4.649zm32.74 63.74c1.73 5.34 2.523 10.66 2.381 15.71v0.019c-0.007 0.224-0.016 0.448-0.026 0.672-0.008 0.199-0.018 0.398-0.031 0.596-0.011 0.207-0.026 0.411-0.043 0.616-0.015 0.224-0.036 0.447-0.055 0.671-0.018 0.18-0.035 0.361-0.055 0.541v0.003c-1.14 10.58-6.59 19.71-16.34 25.01l-0.009 0.01-0.047 0.02-0.046 0.03-0.093 0.05-0.047 0.02c-0.123 0.07-0.248 0.13-0.376 0.2-0.136 0.07-0.275 0.14-0.414 0.21-0.261 0.13-0.523 0.26-0.788 0.38-3.188 1.497-6.79 2.611-10.8 3.27-2.756 0.453-5.707 0.69-8.851 0.69v-2.311-3.897-14.33-3.895-14.33-3.896-6.067-0.692-7.567-3.897-14.32-3.898-0.979-14.26h3.882l-1.564-18.13h-2.318v-1.36-0.692-2.132-2.051-11.14h7.439l1.412 7.077 0.667 3.341c0.176-0.027 0.365-0.043 0.568-0.043 3.577 0 2.67 4.437 0.71 5.35 0.244 0.342 0.365 0.824 0.259 1.212-0.075-0.011-0.156-0.02-0.24-0.027l0.04 0.204 0.053-0.02 8.74 22.62 15.84 40.8 0.001 0.004 0.015 0.04h-0.002c0.073 0.216 0.146 0.432 0.215 0.648h-0.074z" fill-rule="evenodd" fill="#1a1a1a"/>
</g>
</g>
</g>
</g>
</g>
<g id="g7874">
<g id="g852" transform="translate(177.2 369)">
<path id="path854" d="m0 0-22.93 38.83c-18.87 31.96-7.19 68.85 34.68 68.85 41.88 0 53.55-36.9 34.68-68.86l-22.91-38.82h-23.52z" fill-rule="evenodd" fill="#d0b152"/>
</g>
<g id="g856" transform="translate(153.4 412.5)">
<path id="path858" d="m0 0-1.097-1.096c-0.276 0.539-0.547 1.078-0.808 1.619l0.691 0.691-1.855 1.856c-0.574 1.327-1.093 2.657-1.563 3.987l4.632-4.63v-2.427zm-5.576 39.24 4.362 4.362-1.619 1.618c0.295 0.512 0.602 1.013 0.92 1.509l1.913-1.91v-2.43l-5.853-5.85 5.853-5.85v-2.43l-5.853-5.85 5.853-5.85v-2.43l-5.248-5.246c-0.198 0.621-0.385 1.243-0.561 1.866l4.595 4.595-5.851 5.851-0.606-0.604c-0.121 1.295-0.193 2.578-0.213 3.85l0.819-0.819 5.851 5.852-5.579 5.581c0.331 1.427 0.735 2.826 1.217 4.188m9.108-5.023v-2.426l-2.319-2.32 2.319-2.319v-2.427l-3.532 3.533v2.426l3.532 3.533zm0-23.62-3.532 3.533v2.427l3.532 3.532v-2.426l-2.319-2.319 2.319-2.321v-2.426zm0-14.13l-3.532 3.52v2.427l3.532 3.533v-2.427l-2.319-2.319 2.319-2.32v-2.427zm0-5.641-0.372 0.63 0.372 0.372v-1.002zm0 62.16-0.134 0.134 0.134 0.126v-0.26zm-3.532-8.18l3.532 3.534v-2.427l-2.319-2.32 2.319-2.319v-2.427l-3.532 3.53v2.43zm7.065-21.2v-2.427l-3.533-3.532v2.426l2.32 2.32-2.32 2.319v2.427l3.533-3.533zm0 14.13v-2.427l-3.533-3.532v2.426l2.32 2.32-2.32 2.319v2.427l3.533-3.533zm-3.533-31.79l2.32 2.319-2.32 2.319v2.426l3.533-3.532v-2.426l-3.533-3.533v2.427zm3.533-13.02-3.004-3.005-0.529 0.896v1.002l2.32 2.319-2.32 2.32v2.427l3.533-3.533v-2.426zm-3.533 55.42 2.32 2.319-2.32 2.319v0.26c0.372 0.349 0.755 0.689 1.145 1.023l2.388-2.389v-2.426l-3.533-3.533v2.427zm7.066-35.33v-2.426l-2.32-2.319 2.32-2.319v-2.427l-3.533 3.533v2.426l3.533 3.532zm0 14.13v-2.427l-2.32-2.319 2.32-2.319v-2.427l-3.533 3.532v2.427l3.533 3.533zm0 14.13v-2.427l-2.32-2.319 2.32-2.32v-2.426l-3.533 3.532v2.427l3.533 3.533zm0-51.88-3.533 3.533v2.426l3.533 3.533v-2.427l-2.32-2.32 2.32-2.319v-2.426zm0-7.066-1.291-1.291-0.9 1.526 2.191 2.192v-2.427zm-3.533 69.55 3.533 3.533v-2.427l-2.32-2.319 2.32-2.319v-2.427l-3.533 3.533v2.426zm7.066-49.46v-2.427l-3.533-3.533v2.427l2.32 2.32-2.32 2.319v2.427l3.533-3.533zm0 14.13v-2.427l-3.533-3.533v2.426l2.32 2.321-2.32 2.319v2.427l3.533-3.533zm0 14.13v-2.426l-3.533-3.533v2.427l2.32 2.319-2.32 2.32v2.426l3.533-3.533zm0 14.13v-2.426l-3.533-3.533v2.427l2.32 2.319-2.32 2.32v2.427l3.533-3.534zm0-58.95-3.533-3.533v2.427l2.32 2.319-2.32 2.32v2.426l3.533-3.532v-2.427zm0-12.99-1.859 3.148 1.859-1.859v-1.289zm-3.533 82.54 2.32 2.319-1.237 1.238c0.531 0.275 1.073 0.543 1.627 0.799l0.823-0.823v-2.427l-3.533-3.533v2.427zm7.065-49.46v-2.427l-2.319-2.319 2.319-2.32v-2.427l-3.532 3.533v2.427l3.532 3.533zm0 14.13v-2.426l-2.319-2.319 2.319-2.321v-2.426l-3.532 3.533v2.427l3.532 3.532zm0 14.13v-2.426l-2.319-2.32 2.319-2.319v-2.427l-3.532 3.533v2.426l3.532 3.533zm0 14.13v-2.427l-2.319-2.32 2.319-2.319v-2.427l-3.532 3.533v2.426l3.532 3.534zm0-66.02-3.532 3.533v2.427l3.532 3.532v-2.426l-2.319-2.32 2.319-2.319v-2.427zm0-14.13-1.892 1.893-1.64 2.776v1.289l3.532 3.533v-2.426l-2.319-2.32 2.319-2.318v-2.427zm-3.532 90.74 2.01 2.01c0.5 0.188 1.007 0.371 1.522 0.544v-1.448l-2.319-2.32 2.319-2.319v-2.427l-3.532 3.533v2.427zm7.065-63.59v-2.426l-3.533-3.533v2.426l2.32 2.319-2.32 2.32v2.427l3.533-3.533zm0 14.13v-2.426l-3.533-3.533v2.427l2.32 2.319-2.32 2.319v2.426l3.533-3.532zm0 14.13v-2.427l-3.533-3.532v2.426l2.32 2.32-2.32 2.319v2.427l3.533-3.533zm0 14.13v-2.427l-3.533-3.532v2.426l2.32 2.32-2.32 2.319v2.427l3.533-3.533zm-3.533-60.06 2.32 2.321-2.32 2.318v2.427l3.533-3.534v-2.425l-3.533-3.533v2.426zm3.533-13.02-1.397-1.397-0.901 1.526 1.085 1.085-2.32 2.32v2.427l3.533-3.533v-2.428zm-3.533 90.75 3.533-3.533v-2.426l-3.533-3.533v2.427l2.32 2.319-2.32 2.319v2.427zm0 6.087c0.687 0.233 1.387 0.451 2.102 0.654l-2.102-2.102v1.448zm7.066-76.74v-2.427l-2.319-2.318 2.319-2.32v-2.427l-3.532 3.533h-0.001v2.425h0.001l3.532 3.534zm0 14.13v-2.427l-2.319-2.32 2.319-2.318v-2.427l-3.532 3.533h-0.001v2.426h0.001l3.532 3.533zm0 14.13v-2.426l-2.319-2.319 2.319-2.319v-2.427l-3.532 3.533h-0.001v2.426h0.001l3.532 3.532zm0 14.13v-2.427l-2.319-2.319 2.319-2.32v-2.426l-3.532 3.532h-0.001v2.427l0.001-0.001 3.532 3.534zm0 14.13v-2.427l-2.319-2.319 2.319-2.32v-2.426l-3.532 3.532h-0.001v2.427h0.001l3.532 3.533zm0-80.15-3.532 3.531h-0.001v2.428h0.001l3.532 3.533v-2.427l-2.319-2.32 2.319-2.32v-2.425zm0 98.92-2.684 2.683c0.658 0.152 1.323 0.295 2.002 0.426l0.682-0.683v-2.426zm-3.533-8.172h0.001l3.532 3.533v-2.427l-2.319-2.319 2.319-2.319v-2.427l-3.532 3.533h-0.001v2.426zm7.066-77.72v-2.427l-3.533-3.531v2.427l2.319 2.318-2.319 2.32v2.427l3.533-3.534zm0 14.13v-2.428l-3.533-3.532v2.427l2.319 2.319-2.319 2.32v2.427l3.533-3.533zm0 14.13v-2.427l-3.533-3.533v2.427l2.319 2.32-2.319 2.319v2.427l3.533-3.533zm0 14.13v-2.427l-3.533-3.533v2.426l2.319 2.321-2.319 2.319v2.426l3.533-3.532zm0 14.13v-2.427l-3.533-3.533v2.427l2.319 2.319-2.319 2.32v2.426l3.533-3.532zm0 14.13v-2.427l-3.533-3.533v2.427l2.319 2.319-2.319 2.32v2.427l3.533-3.533zm0-87.21-1.083-1.082h-2.427l2.296 2.297-2.319 2.32v2.425l3.533-3.532v-2.428zm-3.533 97.81 2.319 2.319-2.319 2.32v2.426l3.533-3.532v-2.427l-3.533-3.533v2.427zm7.065-77.72v-2.426l-2.318-2.32 2.318-2.318v-2.427l-3.532 3.532v-0.001 2.427l3.532 3.533zm0 14.13v-2.426l-2.318-2.32 2.318-2.319v-2.426l-3.532 3.532v-0.001 2.428l3.532 3.532zm0 14.13v-2.427l-2.318-2.319 2.318-2.319v-2.428l-3.532 3.533v2.427l3.532 3.533zm0 14.13v-2.426l-2.318-2.319 2.318-2.321v-2.426l-3.532 3.533v2.427l3.532 3.532zm0 14.13v-2.427l-2.318-2.319 2.318-2.319v-2.427l-3.532 3.533v2.427-0.001l3.532 3.533zm0 14.13v-2.428l-2.318-2.319 2.318-2.319v-2.427l-3.532 3.533v2.427-0.001l3.532 3.534zm0-87.21-2.318-2.319 2.295-2.297h-2.426l-1.083 1.083v-0.001 2.428-0.001l3.532 3.533v-2.426zm-3.532 97.81 3.532 3.532v-2.426l-2.318-2.32 2.318-2.319v-2.427l-3.532 3.533v2.427zm7.065-77.72v-2.425l-3.533-3.533v2.426l2.32 2.321-2.32 2.319v2.426l3.533-3.534zm0 14.13v-2.426l-3.533-3.533v2.426l2.32 2.319-2.32 2.32v2.428l3.533-3.534zm0 14.13v-2.426l-3.533-3.533v2.427l2.32 2.319-2.32 2.319v2.426l3.533-3.532zm0 14.13v-2.427l-3.533-3.532v2.426l2.32 2.32-2.32 2.319v2.427l3.533-3.533zm0 14.13v-2.427l-3.533-3.533v2.427l2.32 2.32-2.32 2.319v2.427l3.533-3.533zm0 14.13v-2.427l-3.533-3.533v2.428l2.32 2.319-2.32 2.319v2.427l3.533-3.533zm0-87.21-3.533-3.532v2.426l2.32 2.32-2.32 2.32v2.427l3.533-3.533v-2.428zm-3.533 97.81 1.69 1.69c0.608 0.019 1.222 0.029 1.843 0.032v-0.616l-3.533-3.532v2.426zm7.066-77.72v-2.427l-2.32-2.318 2.32-2.32v-2.427l-3.533 3.533v2.425l3.533 3.534zm0 14.13v-2.427l-2.32-2.32 2.32-2.318v-2.427l-3.533 3.533v2.426l3.533 3.533zm0 14.13v-2.426l-2.32-2.319 2.32-2.319v-2.427l-3.533 3.533v2.426l3.533 3.532zm0 14.13v-2.427l-2.32-2.319 2.32-2.319v-2.427l-3.533 3.532v2.427l3.533 3.533zm0 14.13v-2.427l-2.32-2.319 2.32-2.32v-2.426l-3.533 3.532v2.427l3.533 3.533zm0 14.13v-2.427l-2.32-2.319 2.32-2.319v-2.427l-3.533 3.533v-0.001 2.427l3.533 3.533zm0-94.28-3.533 3.532v2.428l3.533 3.532v-2.426l-2.32-2.32 2.32-2.32v-2.426zm-3.533 103.1h0.217c0.545 0 1.083-0.009 1.617-0.023l1.699-1.699v-2.426l-3.533 3.532v0.616zm7.066-90.04v-2.427l-3.533-3.531v2.426l2.32 2.319-2.32 2.32v2.427l3.533-3.534zm0 14.13v-2.427l-3.533-3.533v2.427l2.32 2.319-2.32 2.32v2.427l3.533-3.533zm0 14.13v-2.427l-3.533-3.533v2.427l2.32 2.32-2.32 2.319v2.427l3.533-3.533zm0 14.13v-2.427l-3.533-3.533v2.426l2.32 2.321-2.32 2.319v2.427l3.533-3.533zm0 14.13v-2.427l-3.533-3.533v2.427l2.32 2.319-2.32 2.32v2.426l3.533-3.532zm0 14.13v-2.427l-3.533-3.533v2.427l2.32 2.319-2.32 2.32v2.427l3.533-3.533zm0-87.21-1.083-1.082h-2.427l2.297 2.297-2.32 2.319v2.426l3.533-3.533v-2.427zm-3.533 104.9 3.533-3.532v-2.427l-3.533-3.533v2.427l2.32 2.319-2.32 2.32v2.426zm7.066-84.79v-2.426l-2.32-2.32 2.32-2.319v-2.426l-3.533 3.532v-0.001 2.427l3.533 3.533zm0 14.13v-2.426l-2.32-2.32 2.32-2.319v-2.427l-3.533 3.533v2.427l3.533 3.532zm0 14.13v-2.427l-2.32-2.319 2.32-2.32v-2.427l-3.533 3.533v2.427l3.533 3.533zm0 14.13v-2.426l-2.32-2.319 2.32-2.321v-2.426l-3.533 3.533v2.427l3.533 3.532zm0 14.13v-2.426l-2.32-2.32 2.32-2.319v-2.427l-3.533 3.534v-0.001 2.427-0.001l3.533 3.533zm0 14.13v-2.427l-2.32-2.32 2.32-2.319v-2.427l-3.533 3.533v2.427-0.001l3.533 3.534zm0-87.21-2.32-2.32 2.296-2.297h-2.426l-1.083 1.083v-0.001 2.427l3.533 3.533v-2.425zm-3.533 97.81 3.533 3.532v-2.426l-2.32-2.32 2.32-2.319v-2.427l-3.533 3.533v2.427zm7.065-77.72v-2.425l-3.532-3.533v2.426l2.319 2.321-2.319 2.318v2.427l3.532-3.534zm0 14.13v-2.426l-3.532-3.533v2.426l2.319 2.319-2.319 2.32v2.427l3.532-3.533zm0 14.13v-2.426l-3.532-3.533v2.427l2.319 2.319-2.319 2.319v2.426l3.532-3.532zm0 14.13v-2.427l-3.532-3.532v2.426l2.319 2.32-2.319 2.319v2.427l3.532-3.533zm0 14.13v-2.427l-3.532-3.532v2.426l2.319 2.32-2.319 2.319v2.427l3.532-3.533zm0-73.08-3.532-3.531v2.425l2.319 2.32-2.319 2.32v2.426l3.532-3.532v-2.428zm-3.532 90.75 3.532-3.533v-2.427 0.001l-3.532-3.533v2.427l2.319 2.319-2.319 2.319v2.427zm0 7.065 0.753 0.753c0.682-0.124 1.352-0.266 2.011-0.414l-2.764-2.765v2.426zm7.065-63.59v-2.427l-2.32-2.32 2.32-2.319v-2.426l-3.533 3.533v2.426l3.533 3.533zm0 14.13v-2.426l-2.32-2.319 2.32-2.319v-2.427l-3.533 3.533v2.426l3.533 3.532zm0 14.13v-2.427l-2.32-2.319 2.32-2.32v-2.426l-3.533 3.532v2.427l3.533 3.533zm0 14.13v-2.427l-2.32-2.319 2.32-2.32v-2.426l-3.533 3.532v2.427l3.533 3.533zm0-73.08-2.32-2.32 1.357-1.357-0.9-1.525-1.67 1.668v2.428l3.533 3.533v-2.427zm0 14.13-2.32-2.318 2.32-2.321v-2.426l-3.533 3.533v2.425l3.533 3.534v-2.427zm0 77.72-2.261 2.261c0.77-0.208 1.523-0.43 2.261-0.669v-1.592zm-3.533-8.172 3.533 3.533v-2.427l-2.32-2.319 2.32-2.319v-2.428l-3.533 3.533v2.427zm7.065-49.46v-2.427l-3.532-3.533v2.427l2.319 2.32-2.319 2.319v2.427l3.532-3.533zm0 14.13v-2.427l-3.532-3.533v2.426l2.319 2.321-2.319 2.319v2.426l3.532-3.532zm0 14.13v-2.426l-3.532-3.533v2.427l2.319 2.319-2.319 2.32v2.426l3.532-3.533zm0 14.13v-2.426l-3.532-3.533v2.427l2.319 2.319-2.319 2.319v2.428l3.532-3.534zm-3.532-67.12 3.532-3.533v-2.021l-0.581-0.988-2.951-2.949v2.427l2.319 2.318-2.319 2.32v2.426zm3.532 8.172-3.532-3.533v2.427l2.319 2.319-2.319 2.32v2.426l3.532-3.532v-2.427zm-3.532 69.55 2.319 2.319-2.319 2.32v1.592c0.426-0.139 0.849-0.283 1.266-0.431l2.266-2.267v-2.427l-3.532-3.533v2.427zm7.065-49.46v-2.427l-2.319-2.319 2.319-2.319v-2.428l-3.533 3.533v2.427l3.533 3.533zm0 14.13v-2.426l-2.319-2.319 2.319-2.32v-2.427l-3.533 3.533v2.427l3.533 3.532zm0 14.13v-2.427l-2.319-2.319 2.319-2.319v-2.427l-3.533 3.533v2.426l3.533 3.533zm0 14.13v-2.428l-2.319-2.319 2.319-2.319v-2.427l-3.533 3.533v2.426l3.533 3.534zm-3.533-74.19 2.916 2.916-2.916-4.937v2.021zm3.533 15.24-2.319-2.32 2.319-2.319v-2.427l-3.533 3.533v2.427l3.533 3.532v-2.426zm-3.533 69.55 0.962 0.962c0.558-0.252 1.102-0.517 1.638-0.79l-1.386-1.386 2.319-2.319v-2.427l-3.533 3.533v2.427zm7.066-49.46v-2.426l-3.533-3.533v2.427l2.319 2.319-2.319 2.319v2.427l3.533-3.533zm0 14.13v-2.427l-3.533-3.532v2.426l2.319 2.32-2.319 2.319v2.427l3.533-3.533zm0 14.13v-2.427l-3.533-3.533v2.427l2.319 2.32-2.319 2.319v2.427l3.533-3.533zm-3.533-52.99 2.465-2.464-0.901-1.527-1.564 1.564v2.427zm3.533 8.172-3.533-3.533v2.426l2.319 2.319-2.319 2.32v2.428l3.533-3.534v-2.426zm-3.533 62.48 3.533-3.533v-2.427 0.001l-3.533-3.534v2.428l2.319 2.319-2.319 2.319v2.427zm7.067-28.26v-2.427l-2.321-2.319 2.321-2.32v-2.426l-3.534 3.532v2.427l3.534 3.533zm0 14.13v-2.427l-2.321-2.319 2.321-2.32v-2.426l-3.534 3.532v2.427l3.534 3.533zm0-44.82-2.321-2.32 2.321-2.318v-1.738l-0.257-0.433-3.277 3.277v2.426l3.534 3.533v-2.427zm0 14.13-2.321-2.319 2.321-2.319v-2.427l-3.534 3.533v2.426l3.534 3.532v-2.426zm-3.534 41.29 2.59 2.59c0.321-0.27 0.635-0.545 0.944-0.826v-0.658l-2.321-2.319 2.321-2.319v-2.428l-3.534 3.533v2.427zm7.065-21.2v-2.426l-3.531-3.533v2.427l2.318 2.319-2.318 2.32v2.426l3.531-3.533zm-3.531-38.86 0.644-0.645-0.644-1.093v1.738zm0 14.13 3.531-3.533v-2.427l-3.531-3.533v2.427l2.318 2.32-2.318 2.319v2.427zm3.531 8.171-3.531-3.533v2.426l2.318 2.321-2.318 2.319v2.426l3.531-3.532v-2.427zm-3.531 34.22 3.531-3.534v-2.426l-3.531-3.533v2.427l2.318 2.319-2.318 2.319v2.428zm0 5.296c0.114-0.104 0.229-0.209 0.342-0.314l-0.342-0.344v0.658zm3.42-51.24 5.3 5.295c-0.44-1.304-0.94-2.606-1.48-3.908l-2.6-2.6 0.98-0.984c-0.26-0.537-0.53-1.075-0.81-1.612l-1.39 1.382v2.427zm0 42.39 2.174 2.174c0.323-0.491 0.635-0.989 0.933-1.494l-1.893-1.893 5.012-5.01c0.37-1.111 0.695-2.242 0.968-3.396l-0.128 0.127-5.852-5.852 5.852-5.852 1.254 1.253c-0.01-1.53-0.09-3.1-0.25-4.67l-0.997 0.996-5.852-5.851 4.931-4.931c-0.18-0.614-0.37-1.233-0.57-1.851l-5.572 5.572v2.427l5.853 5.852-5.853 5.852v2.426l5.853 5.853-5.853 5.852v2.426z" fill="#ffefbe"/>
</g>
<g id="g860" transform="translate(177.2 369)">
<path id="path862" d="m0 0-9.618 16.29h42.78l-9.62-16.29h-23.54z" fill-rule="evenodd" fill="#d0b152"/>
</g>
<g id="g864" transform="translate(149.3 420.4)">
<path id="path866" d="m0 0 27.99-72.09-0.63-0.25-28.08 72.34h0.72z" fill="#ff976f"/>
</g>
<g id="g868" transform="translate(229.5 420.4)">
<path id="path870" d="m0 0-28.09-72.34-0.626 0.246l28 72.09h0.72z" fill="#ff976f"/>
</g>
<g id="g872" transform="translate(160.3 420.4)">
<path id="path874" d="m0 0 20.27-72.12-0.65-0.19-20.32 72.31h0.7z" fill="#ff976f"/>
</g>
<g id="g876" transform="translate(218.5 420.4)">
<path id="path878" d="m0 0-20.32-72.31-0.648 0.184l20.27 72.13h0.7z" fill="#ff976f"/>
</g>
<g id="g880" transform="translate(180.3 420.4)">
<path id="path882" d="m0 0 6.228-72.19-0.67-0.06-6.234 72.25h0.676z" fill="#ff976f"/>
</g>
<g id="g884" transform="translate(198.5 420.4)">
<path id="path886" d="m0 0-6.232-72.25-0.67 0.058l6.226 72.19h0.676z" fill="#ff976f"/>
</g>
<g id="g888" transform="translate(176.5 348.3)">
<path id="path890" d="m0 0h24.9l-3.961-19.83h-16.98l-3.96 19.83z" fill-rule="evenodd" fill="#d0b152"/>
</g>
<g id="g892" transform="translate(200.4 343.6)">
<path id="path894" d="m0 0-0.468-2.343h-22.06l-0.47 2.343h23z" fill-rule="evenodd" fill="#ffefbe"/>
</g>
<g id="g896" transform="translate(176.5 348.3)">
<path id="path898" d="m0 0h24.9l-0.468-2.342h-23.97l-0.46 2.342z" fill-rule="evenodd" fill="#ffefbe"/>
</g>
<g id="g900" transform="translate(176.8 346.8)">
<path id="path902" d="m0 0h24.28l-0.159-0.791h-23.97l-0.15 0.791z" fill-rule="evenodd" fill="#ff976f"/>
</g>
<g id="g904" transform="translate(177.4 346.6)">
<path id="path906" d="m0 0c2.745 0 4.552-6.292 0-6.292s-2.745 6.292 0 6.292" fill-rule="evenodd" fill="#ff976f"/>
</g>
<g id="g908" transform="translate(177.4 346)">
<path id="path910" d="m0 0c0.74 0 1.316 1.103 1.11 1.876-0.318-0.042-0.687-0.064-1.11-0.064s-0.792 0.022-1.109 0.064c-0.207-0.773 0.368-1.876 1.109-1.876" fill-rule="evenodd" fill="#ff976f"/>
</g>
<g id="g912" transform="translate(200.4 346.6)">
<path id="path914" d="m0 0c2.745 0 4.553-6.292 0-6.292s-2.745 6.292 0 6.292" fill-rule="evenodd" fill="#ff976f"/>
</g>
<g id="g916" transform="translate(200.4 346)">
<path id="path918" d="m0 0c0.74 0 1.317 1.103 1.109 1.876-0.317-0.042-0.686-0.064-1.109-0.064s-0.792 0.022-1.109 0.064c-0.207-0.773 0.369-1.876 1.109-1.876" fill-rule="evenodd" fill="#ff976f"/>
</g>
<g id="g920" transform="translate(185.1 346.6)">
<path id="path922" d="m0 0c2.746 0 4.553-6.292 0-6.292s-2.744 6.292 0 6.292" fill-rule="evenodd" fill="#ff976f"/>
</g>
<g id="g924" transform="translate(185.1 346)">
<path id="path926" d="m0 0c0.74 0 1.316 1.103 1.11 1.876-0.318-0.042-0.686-0.064-1.11-0.064-0.423 0-0.792 0.022-1.109 0.064-0.207-0.773 0.369-1.876 1.109-1.876" fill-rule="evenodd" fill="#ff976f"/>
</g>
<g id="g928" transform="translate(192.8 346.6)">
<path id="path930" d="m0 0c2.745 0 4.554-6.292 0-6.292-4.552 0-2.744 6.292 0 6.292" fill-rule="evenodd" fill="#ff976f"/>
</g>
<g id="g932" transform="translate(192.8 346)">
<path id="path934" d="m0 0c0.741 0 1.317 1.103 1.11 1.876-0.317-0.042-0.686-0.064-1.11-0.064-0.422 0-0.791 0.022-1.109 0.064-0.207-0.773 0.37-1.876 1.109-1.876" fill-rule="evenodd" fill="#ff976f"/>
</g>
<g id="g936" transform="translate(148.4 421.1)">
<path id="path938" d="m0 0h81.35c-0.085-0.264-0.173-0.527-0.262-0.791h-80.83c-0.088 0.264-0.175 0.527-0.26 0.791" fill-rule="evenodd" fill="#ff976f"/>
</g>
<g id="g940">
<g id="g948">
<g id="g950" opacity="0.15" clip-path="url(#clipPath944)">
<g id="g952" transform="translate(211.4 375.6)">
<path id="path954" d="m0 0-10.58-27.26h-1.754-0.772l0.772 2.748 8.111 28.86 3.173 5.375 1.052 1.788 1.459 2.478v-0.001l3.082 5.22 4.344 7.359h0.001l0.716 1.212 2.64 4.471c0.297 0.503 0.586 1.008 0.868 1.513l-13.12-33.76zm-19.11-27.26 1.785 20.7h0.659 2.166 2.168 0.258 1.4 0.008l5.112 8.657-6.778-24.12-1.471-5.236h-5.307zm40.1 89.04c0.026 3.57-0.348 7.038-1.127 10.34l0.008-0.009c-0.265 1.12-0.579 2.219-0.936 3.298l-0.027 0.082-0.005 0.016h-0.001c-0.807 2.419-1.85 4.728-3.123 6.899l0.005 0.004c-0.256 0.435-0.523 0.863-0.798 1.286-1.58 2.445-3.473 4.697-5.674 6.713l-0.02 0.019-0.02 0.018c-0.078 0.07-0.158 0.14-0.238 0.21l-0.02 0.02-0.019 0.02c-0.144 0.13-0.289 0.259-0.436 0.385-0.117 0.103-0.236 0.204-0.356 0.305l-0.002-0.01c-2.102 1.77-4.461 3.34-7.079 4.67l-0.026 0.01-0.026 0.01-0.024 0.01-0.025 0.02-0.026 0.01-0.025 0.01c-0.253 0.13-0.506 0.26-0.763 0.38l-0.203 0.09c-0.164 0.078-0.328 0.156-0.495 0.23-1.037 0.47-2.113 0.903-3.225 1.302l-0.003 0.003c-0.164 0.058-0.329 0.117-0.495 0.174-0.18 0.062-0.363 0.123-0.547 0.184-0.2 0.066-0.402 0.13-0.604 0.194-1.567 0.494-3.202 0.918-4.906 1.266-0.307 0.064-0.614 0.124-0.926 0.182-0.374 0.07-0.754 0.136-1.135 0.199-2.757 0.451-5.686 0.713-8.785 0.772l-0.024 0.002c-0.427 0.008-0.857 0.014-1.291 0.014v-0.832-11.27-2.86-11.27-2.859-11.27-2.859-11.27-1.117-0.79-0.953-11.27-2.859-11.27-2.859-5.773-5.498-2.86-7.931h3.339 1.092l-1.785-20.7h-2.646v-1.551-0.791-2.434-2.343-12.71h8.491l1.609 8.06 0.765 3.832c0.2-0.032 0.415-0.048 0.647-0.048 4.084 0 3.049 5.063 0.811 6.105 0.279 0.39 0.417 0.941 0.298 1.384-0.088-0.013-0.18-0.021-0.275-0.031l0.046 0.234 0.06-0.023 9.984 25.72 18.1 46.62h-0.003c0.084 0.247 0.166 0.494 0.245 0.741h-0.087c0.198 0.607 0.388 1.215 0.562 1.822l-0.007 0.007c0.952 3.292 1.595 6.567 1.921 9.782l0.004-0.003c0.16 1.574 0.246 3.135 0.257 4.676l-0.007-0.005z" fill-rule="evenodd" fill="#1a1a1a"/>
</g>
</g>
</g>
</g>
</g>
</g>
</g>
</svg>
