<?xml version="1.0" encoding="UTF-8" standalone="no"?>
<svg id="svg5948" xmlns:rdf="http://www.w3.org/1999/02/22-rdf-syntax-ns#" xmlns="http://www.w3.org/2000/svg" height="720" width="1e3" version="1.1" xmlns:cc="http://creativecommons.org/ns#" xmlns:dc="http://purl.org/dc/elements/1.1/" viewBox="0 0 1000 720.00001">
<defs id="defs5950">
<clipPath id="clipPath26-5" clipPathUnits="userSpaceOnUse">
<path id="path28-4" d="m635.64 289.85h115.71v-68.854h-115.71v68.854z"/>
</clipPath>
<clipPath id="clipPath42-0" clipPathUnits="userSpaceOnUse">
<path id="path44-2" d="m160.46 190.25h76.082v-44.252h-76.082v44.252z"/>
</clipPath>
<clipPath id="clipPath58-8" clipPathUnits="userSpaceOnUse">
<path id="path60-1" d="m631.46 521.25h76.082v-44.252h-76.082v44.252z"/>
</clipPath>
<clipPath id="clipPath74-5" clipPathUnits="userSpaceOnUse">
<path id="path76-1" d="m126.06 572.25h58.888v-34.252h-58.888v34.252z"/>
</clipPath>
<clipPath id="clipPath90-2" clipPathUnits="userSpaceOnUse">
<path id="path92-3" d="m27.459 339.83h100.95v-58.833h-100.95v58.833z"/>
</clipPath>
</defs>
<g id="layer1" transform="translate(0 -332.36)">
<g id="g7926" transform="matrix(1.25 0 0 -1.25 0 1052.4)">
<path id="path226" d="m749 55h-3v-40h3v40z" fill="#6e5737"/>
<path id="path228" d="m393 55h-4v-40h4v40z" fill="#6e4f1e"/>
<g id="g238" transform="translate(414 44.07)">
<path id="path240" d="m0 0c0-12.218-9.906-22.123-22.123-22.123-12.218 0-22.123 9.905-22.123 22.123 0 12.219 9.905 22.123 22.123 22.123 12.217 0 22.123-9.904 22.123-22.123" fill="#96e283"/>
</g>
<g fill="#6e4f1e">
<path id="path242" d="m59 55h-4v-40h4v40z"/>
<path id="path244" d="m79 42h-3v-27h3v27z"/>
<path id="path246" d="m142 27h-4v-12h4v12z"/>
<path id="path248" d="m162 55h-4v-40h4v40z"/>
</g>
<g id="g250" transform="translate(175.88 44.955)">
<path id="path252" d="m0 0c0-8.797-7.131-15.929-15.929-15.929s-15.928 7.132-15.928 15.929c0 8.798 7.13 33.629 15.928 33.629s15.929-24.831 15.929-33.629" fill="#2e7d59"/>
</g>
<path id="path254" d="m373 55h-3v-40h3v40z" fill="#6e4f1e"/>
<g id="g256" transform="translate(388.34 47.61)">
<path id="path258" d="m0 0c0-8.797-7.132-15.929-15.929-15.929-8.798 0-15.929 7.132-15.929 15.929 0 8.798 7.131 33.628 15.929 33.628 8.797 0 15.929-24.83 15.929-33.628" fill="#2e7d59"/>
</g>
<path id="path260" d="m322 55h-3v-40h3v40z" fill="#6e4f1e"/>
<g id="g262" transform="translate(333.53 37.745)">
<path id="path264" d="m0 0c0-7.168-5.811-12.979-12.979-12.979-7.167 0-12.978 5.811-12.978 12.979s5.811 27.399 12.978 27.399c7.168 0 12.979-20.231 12.979-27.399" fill="#349c6e"/>
</g>
<g id="g266" transform="translate(77.581 64.425)">
<path id="path268" d="m0 0c0-11.242-9.114-20.354-20.354-20.354-11.241 0-20.354 9.112-20.354 20.354 0 11.241 9.113 20.354 20.354 20.354 11.24 0 20.354-9.113 20.354-20.354" fill="#96e283"/>
</g>
<path id="path270" d="m244 55h-4v-40h4v40z" fill="#6e4f1e"/>
<g id="g272" transform="translate(268.15 51.15)">
<path id="path274" d="m0 0c0-14.175-11.49-25.664-25.664-25.664-14.173 0-25.663 11.489-25.663 25.664 0 14.174 11.49 25.663 25.663 25.663 14.174 0 25.664-11.489 25.664-25.663" fill="#96e283"/>
</g>
<g id="g276" transform="translate(151.99 56.902)">
<path id="path278" d="m0 0c0-17.839-5.15-32.301-11.504-32.301-6.353 0-11.505 14.462-11.505 32.301s5.152 32.301 11.505 32.301c6.354 0 11.504-14.462 11.504-32.301" fill="#67a85a"/>
</g>
<path id="path280" d="m702 55h-4v-40h4v40z" fill="#6e4f1e"/>
<g id="g282" transform="translate(763.13 44.955)">
<path id="path284" d="m0 0c0-8.797-7.131-15.929-15.929-15.929s-15.928 7.132-15.928 15.929c0 8.798 7.13 15.93 15.928 15.93s15.929-7.132 15.929-15.93" fill="#96e283"/>
</g>
<path id="path286" d="m624 49h-4v-34h4v34z" fill="#6e4f1e"/>
<g id="g288" transform="translate(638.78 38.761)">
<path id="path290" d="m0 0c0-8.798-7.132-15.93-15.93-15.93s-15.929 7.132-15.929 15.93 7.131 15.93 15.929 15.93 15.93-7.132 15.93-15.93" fill="#96e283"/>
</g>
<g id="g292" transform="translate(709.19 49.822)">
<path id="path294" d="m0 0c0-13.721-3.963-24.847-8.85-24.847-4.886 0-8.849 11.126-8.849 24.847 0 13.723 3.963 24.848 8.849 24.848 4.887 0 8.85-11.125 8.85-24.848" fill="#67a85a"/>
</g>
<path id="path296" d="m260 55h-3v-40h3v40z" fill="#6e4f1e"/>
<g id="g298" transform="translate(277.88 67.08)">
<path id="path300" d="m0 0c0-10.265-8.32-18.585-18.584-18.585s-18.584 8.32-18.584 18.585c0 10.264 8.32 18.583 18.584 18.583s18.584-8.319 18.584-18.583" fill="#349c6e"/>
</g>
<path id="path302" d="m453 27h-4v-12h4v12z" fill="#6e4f1e"/>
<path id="path304" d="m473 55h-4v-40h4v40z" fill="#6e4f1e"/>
<g id="g306" transform="translate(486.88 44.955)">
<path id="path308" d="m0 0c0-8.797-7.131-15.929-15.929-15.929s-15.928 7.132-15.928 15.929c0 8.798 7.13 33.629 15.928 33.629s15.929-24.831 15.929-33.629" fill="#2e7d59"/>
</g>
<path id="path310" d="m555 55h-4v-40h4v40z" fill="#6e4f1e"/>
<g id="g312" transform="translate(579.15 51.15)">
<path id="path314" d="m0 0c0-14.175-11.49-25.664-25.664-25.664-14.173 0-25.663 11.489-25.663 25.664 0 14.174 11.49 25.663 25.663 25.663 14.174 0 25.664-11.489 25.664-25.663" fill="#96e283"/>
</g>
<g id="g316" transform="translate(462.99 56.902)">
<path id="path318" d="m0 0c0-17.839-5.15-32.301-11.504-32.301-6.353 0-11.505 14.462-11.505 32.301s5.152 32.301 11.505 32.301c6.354 0 11.504-14.462 11.504-32.301" fill="#67a85a"/>
</g>
<path id="path320" d="m571 55h-3v-40h3v40z" fill="#6e4f1e"/>
<g id="g322" transform="translate(588.88 67.08)">
<path id="path324" d="m0 0c0-10.265-8.32-18.585-18.584-18.585s-18.584 8.32-18.584 18.585c0 10.264 8.32 18.583 18.584 18.583s18.584-8.319 18.584-18.583" fill="#349c6e"/>
</g>
<g id="g326" transform="translate(94.394 50.265)">
<path id="path328" d="m0 0c0-8.797-7.132-15.929-15.929-15.929-8.798 0-15.929 7.132-15.929 15.929 0 8.798 7.131 15.93 15.929 15.93 8.797 0 15.929-7.132 15.929-15.93" fill="#349c6e"/>
</g>
<path id="path330" d="m644 42h-3v-27h3v27z" fill="#6e4f1e"/>
<g id="g332" transform="translate(662.13 47.61)">
<path id="path334" d="m0 0c0-10.451-8.472-18.923-18.922-18.923-10.451 0-18.924 8.472-18.924 18.923s8.473 18.923 18.924 18.923c10.45 0 18.922-8.472 18.922-18.923" fill="#349c6e"/>
</g>
<path id="path956" d="m800 0h-800v15h800v-15z" fill="#349c6e"/>
</g>
<g id="g8604">
<g id="g22" transform="matrix(1.25 0 0 -1.25 11.429 1120.9)">
<g id="g30">
<g id="g32" opacity=".5" clip-path="url(#clipPath26-5)">
<g id="g34" transform="translate(734.55 255.99)">
<path id="path36" d="m0 0c0.63 2.273 0.993 4.658 0.993 7.134 0 14.764-11.971 26.733-26.736 26.733-13.338 0-24.362-9.778-26.375-22.551-3.104 4.719-8.438 7.837-14.507 7.837-9.589 0-17.36-7.772-17.36-17.359 0-0.644 0.041-1.276 0.109-1.9-8.45-0.941-15.025-8.684-15.025-17.384 0-9.339 7.573-17.496 16.912-17.496h81.886c9.339 0 16.913 8.157 16.913 17.496 0 9.303-7.519 17.434-16.81 17.49" fill="#fff"/>
</g>
</g>
</g>
</g>
<g id="g38" transform="matrix(1.25 0 0 -1.25 11.429 1120.9)">
<g id="g46">
<g id="g48" opacity=".5" clip-path="url(#clipPath42-0)">
<g id="g50" transform="translate(171.51 167.98)">
<path id="path52" d="m0 0c-0.415 1.495-0.652 3.063-0.652 4.691 0 9.708 7.87 17.578 17.579 17.578 8.77 0 16.019-6.429 17.342-14.828 2.041 3.103 5.548 5.153 9.539 5.153 6.304 0 11.414-5.111 11.414-11.413 0-0.424-0.027-0.84-0.072-1.25 5.557-0.618 9.88-5.201 9.88-10.921 0-6.14-4.98-10.993-11.12-10.993h-53.843c-6.14 0-11.119 4.853-11.119 10.993 0 6.118 4.943 10.954 11.052 10.99" fill="#fff"/>
</g>
</g>
</g>
</g>
<g id="g54" transform="matrix(1.25 0 0 -1.25 11.429 1120.9)">
<g id="g62">
<g id="g64" opacity=".5" clip-path="url(#clipPath58-8)">
<g id="g66" transform="translate(642.51 498.98)">
<path id="path68" d="m0 0c-0.415 1.495-0.652 3.063-0.652 4.691 0 9.708 7.87 17.578 17.578 17.578 8.77 0 16.019-6.429 17.343-14.828 2.04 3.103 5.547 5.153 9.538 5.153 6.304 0 11.415-5.111 11.415-11.413 0-0.424-0.027-0.84-0.072-1.25 5.556-0.618 9.879-5.201 9.879-10.921 0-6.14-4.979-10.993-11.119-10.993h-53.844c-6.139 0-11.119 4.853-11.119 10.993 0 6.118 4.944 10.954 11.053 10.99" fill="#fff"/>
</g>
</g>
</g>
</g>
<g id="g70" transform="matrix(1.25 0 0 -1.25 11.429 1120.9)">
<g id="g78">
<g id="g80" opacity=".5" clip-path="url(#clipPath74-5)">
<g id="g82" transform="translate(134.61 555.02)">
<path id="path84" d="m0 0c-0.321 1.157-0.505 2.371-0.505 3.631 0 7.515 6.092 13.605 13.606 13.605 6.789 0 12.399-4.976 13.424-11.476 1.579 2.401 4.294 3.988 7.382 3.988 4.881 0 8.836-3.956 8.836-8.834 0-0.328-0.02-0.65-0.055-0.968 4.3-0.478 7.646-4.025 7.646-8.453 0-4.752-3.854-8.509-8.606-8.509h-41.676c-4.753 0-8.607 3.757-8.607 8.509 0 4.736 3.826 8.479 8.555 8.507" fill="#fff"/>
</g>
</g>
</g>
</g>
<g id="g86" transform="matrix(1.25 0 0 -1.25 11.429 1120.9)">
<g id="g94">
<g id="g96" opacity=".5" clip-path="url(#clipPath90-2)">
<g id="g98" transform="translate(42.124 310.29)">
<path id="path100" d="m0 0c-0.55 1.983-0.865 4.064-0.865 6.225 0 12.881 10.443 23.323 23.325 23.323 11.638 0 21.257-8.531 23.013-19.675 2.707 4.117 7.361 6.837 12.656 6.837 8.366 0 15.146-6.78 15.146-15.145 0-0.561-0.036-1.113-0.094-1.658 7.372-0.82 13.108-6.957 13.108-14.548 0-8.147-6.607-14.644-14.755-14.644h-71.444c-8.148 0-14.755 6.497-14.755 14.644 0 8.119 6.559 14.592 14.665 14.641" fill="#fff"/>
</g>
</g>
</g>
</g>
</g>
</g>
</svg>
